<svg width="180" height="180" viewBox="0 0 180 180" fill="none" xmlns="http://www.w3.org/2000/svg">
<g clip-path="url(#clip0_4616_32)">
<path fill-rule="evenodd" clip-rule="evenodd" d="M79.0303 20.5202C91.0902 16.8602 103.89 15.8402 116.36 17.7301C129.01 19.6601 141.01 25.1702 150.79 33.4L150.78 33.3903C152.36 34.7203 150.121 36.8298 148.551 35.6198C147.597 34.8793 146.618 34.1695 145.62 33.486C145.558 33.5856 145.486 33.6846 145.4 33.7799C141 38.6598 135.471 42.3104 129.421 44.8004C128.685 45.1038 127.943 45.3876 127.197 45.654C131.64 57.91 134.407 70.9683 135.274 83.9401C143.991 84.8582 152.642 86.2983 161.07 88.57C162.95 89.08 162.11 91.6906 160.28 91.4206C152.036 90.2038 143.777 89.0801 135.481 88.2282C135.818 100.252 134.135 112.127 130.73 123.69C129.887 126.558 128.967 129.461 127.921 132.331C128.585 132.578 129.245 132.841 129.9 133.121C132.3 134.141 134.62 135.37 136.74 136.9C138.632 138.261 140.631 139.819 142.023 141.736C144.974 139.49 147.744 137.003 150.29 134.28C161.61 122.18 167.491 106.12 167.631 89.6305C167.771 73.0205 162.75 56.0205 153.24 42.3405C151.89 40.4006 155.07 38.5605 156.41 40.4899C158.82 43.9599 161.051 47.51 162.971 51.2799C170.941 66.9699 173.95 85.3201 171.11 102.69C169.7 111.35 166.68 119.88 162.04 127.35C157.63 134.46 151.9 140.591 145.271 145.671C133.054 155.026 117.911 160.372 102.577 161.349C91.5951 163.073 80.307 163.325 69.251 162.84C60.301 162.44 51.3302 161.611 42.4902 160.131C35.1203 158.901 27.7303 157.16 20.9004 154.05C15.0404 151.38 6.9105 146.18 8.0205 138.69C8.69055 134.17 12.0206 130.29 15.6006 127.69C19.5905 124.79 24.4705 123.39 29.1504 122.06C29.7194 121.899 30.334 122.003 30.834 122.299C28.8584 118.627 27.2065 114.773 25.9209 110.77C21.6609 97.4802 21.5707 82.6698 26.0107 69.4098C29.9608 57.6 37.0409 47.0996 46.3008 38.7897C55.6806 30.3699 66.9805 24.1801 79.0303 20.5202ZM64.6885 88.2282C52.4403 89.3909 40.26 91.1007 28.1006 93.07V93.0602C27.863 93.0983 27.6409 93.0898 27.4365 93.0475C27.8814 101.916 30.1686 110.766 34.1904 118.68C40.9404 131.95 52.0608 142.65 65.3408 149.31C72.6822 152.994 80.6256 155.319 88.7363 156.269C88.3192 155.95 87.913 155.614 87.5205 155.26C85.4605 153.4 83.7905 151.04 82.2305 148.76C80.8305 146.71 79.5208 144.59 78.3008 142.43C76.8784 139.905 75.5748 137.313 74.3828 134.672C69.5919 135.91 64.9441 137.637 60.6006 139.98L60.5908 139.99C58.8009 140.95 57.2206 138.231 59 137.26C63.4447 134.834 68.1268 132.848 72.9756 131.405C72.5297 130.32 72.101 129.228 71.6904 128.131C66.9549 115.479 64.5488 101.82 64.6885 88.2282ZM122.168 134.728C113.07 132.191 103.213 131.731 93.8809 132.03C88.8896 132.192 83.8248 132.69 78.8584 133.658C80.614 137.372 82.612 140.968 84.8408 144.421C87.4907 148.52 90.2007 152.6 94.8506 154.61C99.3706 156.56 104.331 156.06 108.461 153.45C112.211 151.09 115.091 147.5 117.421 143.78C119.236 140.894 120.799 137.858 122.168 134.728ZM126.455 136.108C123.981 142.085 120.83 147.775 116.501 152.52C115.805 153.281 115.065 154.017 114.286 154.714C122.973 152.643 131.321 149.078 138.719 144.102C136.914 142.446 135.267 140.732 133.141 139.39C131.039 138.053 128.791 136.974 126.455 136.108ZM131.127 87.8083C113.9 86.2664 96.5515 86.1694 79.29 87.1208C75.8477 87.311 72.4122 87.5543 68.9824 87.8424C68.8155 102.349 71.6732 117.028 77.334 130.268C77.5859 130.212 77.8381 130.154 78.0908 130.1C89.8207 127.6 102.181 127.511 114.051 129.081C117.315 129.513 120.546 130.104 123.702 130.974C125.512 126.243 126.94 121.355 128.16 116.49C130.517 107.086 131.43 97.4478 131.127 87.8083ZM62.0127 32.8063C55.2386 36.8121 49.0247 41.8165 43.7607 47.6803C35.9407 56.4003 30.5904 66.9404 28.4004 78.5104C27.6999 82.2244 27.3556 86.0289 27.3555 89.8502C36.7418 87.7169 46.2661 86.2553 55.8203 85.1208C58.8119 84.7651 61.8083 84.4453 64.8076 84.1569C65.1086 77.8786 65.9595 71.6378 67.3809 65.5407C69.2295 57.62 72.1516 49.8644 76.2021 42.7799C75.4424 42.4942 74.6879 42.1987 73.9404 41.8903C69.224 39.9482 64.6827 37.2642 62.0127 32.8063ZM80.0332 44.1149C79.5425 44.9854 79.0681 45.8648 78.6103 46.7506C74.1905 55.3005 71.4508 64.7007 70.0508 74.2106C69.5856 77.3672 69.2727 80.5573 69.1094 83.7633C82.4864 82.6236 95.9242 82.1645 109.351 82.4499C116.507 82.6029 123.722 82.9038 130.911 83.5231C130.754 81.2159 130.53 78.9102 130.24 76.61C129.4 69.8902 127.961 63.2304 126.141 56.7106C125.224 53.4411 124.248 50.1492 123.108 46.9215C113.127 49.577 102.503 49.2798 92.3809 47.2702C88.2423 46.4491 84.082 45.4207 80.0332 44.1149ZM108.58 25.7907C105.279 23.9851 101.421 23.1545 97.7988 23.8688C97.776 23.8825 97.7532 23.8961 97.7305 23.9098C93.2405 26.6198 89.4804 30.79 86.2305 34.86C84.6491 36.8393 83.1894 38.9202 81.8418 41.0709C92.4346 44.2432 103.613 46.1259 114.641 44.86C117.056 44.5832 119.463 44.1315 121.826 43.5084C121.178 41.8905 120.48 40.2962 119.711 38.7399C117.171 33.5899 113.73 28.5906 108.58 25.7907ZM109.308 21.2946C111.887 22.5026 114.251 24.2104 116.221 26.1803C120.694 30.6639 123.609 36.4118 125.908 42.2399C132.19 39.9803 137.977 36.4114 142.528 31.4918C142.042 31.196 141.553 30.904 141.061 30.6198C131.352 25.0398 120.398 21.9674 109.308 21.2946ZM92.2949 22.0749C85.4198 23.1123 78.6713 25.0117 72.1904 27.7106C69.5888 28.793 67.0357 30.0142 64.5488 31.3668C67.6233 35.8838 72.9321 38.1772 77.9668 39.8483C78.4695 39.0556 78.9876 38.2729 79.5205 37.5006C82.4605 33.2506 85.8206 29.2804 89.6006 25.7604C90.1267 25.271 90.6674 24.7904 91.2217 24.3239C91.0477 23.6371 91.2302 22.8413 91.9609 22.3102C92.0713 22.2295 92.1831 22.1518 92.2949 22.0749Z" fill="#4F97D1"/>
</g>
<defs>
<clipPath id="clip0_4616_32">
<rect width="180" height="180" fill="white"/>
</clipPath>
</defs>
</svg>
